<svg xmlns="http://www.w3.org/2000/svg" width="17" height="15" viewBox="0 0 17 15">
  <path id="Path_23" data-name="Path 23" d="M591.293,481.574a2.947,2.947,0,0,0,.652-.034c.206-.078.411,0,.411-.937s-.206-.781-.891-.781a1.08,1.08,0,0,0-.776.466l-.527-1.95c-.2-.715-.343-1.719-1.654-1.953h0a22.1,22.1,0,0,0-8.212-.013l-.067.013a2,2,0,0,0-1.586,1.719l-.594,2.186a1.081,1.081,0,0,0-.777-.468c-.686,0-.891-.156-.891.781s.206.859.411.938a3.091,3.091,0,0,0,.676.034,4.421,4.421,0,0,0-1.567,3.958c.134,2.823.557,3.123.959,3.315v1.49a.619.619,0,0,0,.575.655h1.181a.619.619,0,0,0,.575-.655v-1.11a47.263,47.263,0,0,0,10.352-.006v1.038a.619.619,0,0,0,.575.656H591.3a.619.619,0,0,0,.575-.656v-1.4c.418-.2.876-.385,1.011-3.345A4.359,4.359,0,0,0,591.293,481.574ZM579.581,478.1c.162-.541.573-.759,1.183-.908h0a17.232,17.232,0,0,1,3.564-.34h.009a17.232,17.232,0,0,1,3.564.34h0c.61.15,1.021.367,1.183.908l.735,3.084-.044,0q-2.719-.145-5.441-.14h0q-2.721-.005-5.441.14l-.044,0Zm10.718,3.283h0Zm-10.489,4.453a1.339,1.339,0,1,1,1.165-1.328A1.255,1.255,0,0,1,579.81,485.837Zm6.893,1.321-.328,1a.357.357,0,0,1-.329.26h-3.284a.357.357,0,0,1-.329-.26l-.328-1a.224.224,0,0,1,.186-.305h4.227A.224.224,0,0,1,586.7,487.158Zm2.226-1.321a1.339,1.339,0,1,1,1.165-1.328A1.255,1.255,0,0,1,588.928,485.837Z" transform="translate(-575.894 -475.993)" opacity="0.4"/>
</svg>
