<svg xmlns="http://www.w3.org/2000/svg" width="71.103" height="70.002" viewBox="0 0 71.103 70.002">
  <path id="Union_12" data-name="Union 12" d="M-285.864,47.965-287.2,47.9l.132-2.665,1.332.066a30.632,30.632,0,0,0,4.426-.112l1.328-.13.259,2.657-1.328.13c-1.07.1-2.187.158-3.317.158C-284.863,48-285.367,47.989-285.864,47.965Zm-6.064-.627a29.8,29.8,0,0,1-4.632-1.395l-1.243-.488.976-2.484,1.242.488a27.165,27.165,0,0,0,4.217,1.27l1.3.28-.56,2.609Zm14.917-2.58,1.289-.346a24.207,24.207,0,0,0,4.107-1.513l1.2-.574,1.148,2.409-1.2.573a26.7,26.7,0,0,1-4.563,1.681l-1.289.347Zm14.055-4.427-1.075-1.807a5.971,5.971,0,0,1-.114-5.959,5.811,5.811,0,0,1,4.9-3.076c.175-.007.359-.007.534,0a5.768,5.768,0,0,1,3.427,1.292,5.97,5.97,0,0,1,1.476,1.784,5.973,5.973,0,0,1-.114,5.959l-5.055,8.491Zm3.756-9.809a4.786,4.786,0,0,0-4.037,2.535A4.958,4.958,0,0,0-263.147,38l.995,1.666L-258.976,45l4.171-7a4.962,4.962,0,0,0,.092-4.941,4.866,4.866,0,0,0-1.057-1.335,4.753,4.753,0,0,0-2.981-1.2c-.073,0-.149,0-.225,0S-259.129,30.517-259.2,30.521Zm-60.654,3.141a8.052,8.052,0,0,1-.152-8.014,7.882,7.882,0,0,1,3.629-3.427,7.87,7.87,0,0,1,2.966-.709c.237-.012.481-.012.716,0a7.819,7.819,0,0,1,6.6,4.136,8.052,8.052,0,0,1-.153,8.014l-2.311,3.879,1.411-1.331,1.006,1.066c.069.074.069.074.179.182l-.909.977-.935.952.935-.952-.96.928c-.157-.155-.157-.155-.257-.261l-.858-.911-4.1,6.888Zm6.5-10.762a6.376,6.376,0,0,0-2.775.751,6.509,6.509,0,0,0-2.654,2.66,6.666,6.666,0,0,0,.122,6.641l5.608,9.413,3.336-5.6,2.272-3.812a6.662,6.662,0,0,0,.122-6.641,6.427,6.427,0,0,0-5.429-3.412c-.1,0-.2-.007-.3-.007S-313.255,22.9-313.355,22.9Zm11.328,20.914a30.015,30.015,0,0,1-3.945-2.8l-1.022-.858,1.715-2.044,1.022.857a27.339,27.339,0,0,0,3.593,2.551l1.147.681-1.363,2.3Zm33.913-2.373,1.084-.778c.415-.3.831-.615,1.237-.943l1.038-.839,1.678,2.075-1.038.839c-.446.361-.9.709-1.359,1.036l-1.085.778Zm8.215-3.966a2.285,2.285,0,0,1-1.365-2.089,2.289,2.289,0,0,1,2.288-2.287,2.279,2.279,0,0,1,1.822.911,2.261,2.261,0,0,1,.464,1.376,2.288,2.288,0,0,1-2.287,2.283A2.256,2.256,0,0,1-259.9,37.474Zm-.332-2.089a1.249,1.249,0,0,0,1.091,1.236.81.81,0,0,0,.164.014,1.254,1.254,0,0,0,1.255-1.25,1.231,1.231,0,0,0-.085-.45,1.253,1.253,0,0,0-1.17-.8A1.256,1.256,0,0,0-260.23,35.385Zm-55.9-5.947a3.05,3.05,0,0,1,.949-2.215,3.07,3.07,0,0,1,2.128-.858,3.079,3.079,0,0,1,3.076,3.073,3.081,3.081,0,0,1-2.794,3.065c-.092.008-.187.012-.283.012A3.079,3.079,0,0,1-316.13,29.438Zm1.528-.66a1.664,1.664,0,0,0-.137.66,1.691,1.691,0,0,0,1.166,1.6,0,0,0,0,1,0,0,1.618,1.618,0,0,0,.515.08,1.688,1.688,0,0,0,1.685-1.688,1.688,1.688,0,0,0-1.685-1.686A1.684,1.684,0,0,0-314.6,28.778Zm57.649-.4.595-1.194a27.107,27.107,0,0,0,1.662-4.082l.4-1.274,2.549.792-.4,1.274a29.956,29.956,0,0,1-1.822,4.479l-.595,1.194Zm-60.853-10.011a22.718,22.718,0,0,1-.2-3.659V14.56q0-.479.015-.958l.042-1.333,2.668.085-.042,1.334c-.009.29-.014.581-.014.872v.154a20.232,20.232,0,0,0,.178,3.279l.189,1.32-2.642.38Zm63.853.5.149-1.326a27.055,27.055,0,0,0,.164-3.058c0-.459-.008-.918-.024-1.363l-.05-1.334,2.667-.1L-251,13.03c.019.478.027.97.027,1.463a29.791,29.791,0,0,1-.18,3.356l-.149,1.327Zm-63.77-9.983.252-1.31A29.882,29.882,0,0,1-316.2,3l.457-1.254,2.507.914-.458,1.254a27.294,27.294,0,0,0-1.154,4.172L-315.1,9.4ZM-254.131,7.4a25.357,25.357,0,0,0-1.151-4.234l-.464-1.251,2.5-.928.464,1.251a27.97,27.97,0,0,1,1.275,4.684l.239,1.312-2.625.48ZM-268.065-8.842a8.037,8.037,0,0,1-.8-6.454,7.851,7.851,0,0,1,.648-1.56,7.818,7.818,0,0,1,6.6-4.136c.237-.012.481-.012.717,0a7.819,7.819,0,0,1,6.6,4.136,8.052,8.052,0,0,1-.153,8.014l-2.39,4.01-.88,1.478L-255.9-4.52l.715,1.126c.1.149.188.3.28.451l.693,1.14-2.281,1.386-.693-1.14c-.082-.136-.166-.272-.251-.406l-.582-.916-3.248,5.455Zm6.5-10.762a6.426,6.426,0,0,0-5.429,3.412,6.9,6.9,0,0,0-.607,1.521,6.639,6.639,0,0,0,.728,5.12l5.608,9.413,3.55-5.955,2.058-3.458a6.662,6.662,0,0,0,.122-6.641,6.426,6.426,0,0,0-5.429-3.412c-.1,0-.2-.007-.3-.007S-261.465-19.607-261.564-19.6ZM-314.87-1.313l.652-1.165a30.214,30.214,0,0,1,2.643-3.953l.828-1.047,2.093,1.655-.827,1.047a27.375,27.375,0,0,0-2.408,3.6l-.652,1.165Zm5.546-9.165.982-.9a30.081,30.081,0,0,1,3.741-2.932l1.112-.737,1.475,2.224-1.112.737a27.413,27.413,0,0,0-3.408,2.672l-.982.9Zm45.012-2.119a3.8,3.8,0,0,1-.027-.419,3.079,3.079,0,0,1,3.076-3.073,3.079,3.079,0,0,1,3.077,3.073,3.082,3.082,0,0,1-2.921,3.073h0c-.049,0-.1,0-.153,0A3.082,3.082,0,0,1-264.313-12.6Zm1.364-.419a1.689,1.689,0,0,0,1.685,1.688,1.689,1.689,0,0,0,1.686-1.688,1.688,1.688,0,0,0-1.686-1.685A1.688,1.688,0,0,0-262.949-13.016Zm-36.46-3.049,1.214-.552a29.833,29.833,0,0,1,4.473-1.614l1.288-.351.7,2.575-1.286.351a26.99,26.99,0,0,0-4.072,1.469l-1.215.552Zm25.891,1.286a26.9,26.9,0,0,0-4.148-1.238l-1.3-.278.555-2.61,1.3.277a29.737,29.737,0,0,1,4.559,1.362l1.244.482-.967,2.488Zm-15.632-4.19,1.327-.142a30.5,30.5,0,0,1,4.749-.132l1.333.068-.134,2.665-1.333-.068a27.909,27.909,0,0,0-4.332.122l-1.328.141Z" transform="translate(321.574 21.5)" fill="#fcd850" stroke="rgba(0,0,0,0)" stroke-miterlimit="10" stroke-width="1"/>
</svg>
