<svg xmlns="http://www.w3.org/2000/svg" width="52" height="69.999" viewBox="0 0 52 69.999">
  <path id="Union_10" data-name="Union 10" d="M-272.605,48a22.106,22.106,0,0,0-19.334-21.836c-2.076,4.106-2.426,4.455-2.64,4.669a1.421,1.421,0,0,1-1.227.4c-.769-.115-1.431-.525-3.851-4.992A21.944,21.944,0,0,0-318.394,48H-321a24.545,24.545,0,0,1,21.928-24.457l.877-.1.414.778c.963,1.812,1.613,2.917,2.043,3.588.392-.715.983-1.843,1.873-3.62l.393-.786.876.071a24.5,24.5,0,0,1,16.043,7.8A24.525,24.525,0,0,1-270,48ZM-310.195,9.179a3.616,3.616,0,0,1-1.887.533h-2.666a3.65,3.65,0,0,1-3.646-3.646V-3.022A3.65,3.65,0,0,1-315.1-6.65a26.057,26.057,0,0,1,3.743-6.581A19.467,19.467,0,0,1-295.78-21v0l.094,0,.093,0v0a19.467,19.467,0,0,1,15.578,7.764,26.056,26.056,0,0,1,3.736,6.563h.307a3.651,3.651,0,0,1,3.646,3.646V6.066a3.651,3.651,0,0,1-3.646,3.646h-2.667a3.622,3.622,0,0,1-1.966-.581c-2.1,6.824-7.938,11.749-14.8,11.749C-302.255,20.88-308.084,15.978-310.195,9.179Zm1.759-5.61c0,8.108,5.845,14.7,13.029,14.7s13.029-6.6,13.029-14.7-5.845-14.7-13.029-14.7S-308.436-4.539-308.436,3.569Zm28.758-6.592V6.066a1.041,1.041,0,0,0,1.04,1.04h2.667a1.041,1.041,0,0,0,1.04-1.04V-3.022a1.041,1.041,0,0,0-1.04-1.039h-2.667A1.041,1.041,0,0,0-279.679-3.022Zm-36.11,0V6.066a1.041,1.041,0,0,0,1.04,1.04h2.666a1.041,1.041,0,0,0,1.04-1.04V-3.022a1.041,1.041,0,0,0-1.04-1.039h-2.666A1.041,1.041,0,0,0-315.788-3.022Zm34.019-1.859a3.645,3.645,0,0,1,3.115-1.786,24.272,24.272,0,0,0-3.237-5.5,17,17,0,0,0-13.817-6.872c-10.646.063-15.456,8.735-17.006,12.371h.633A3.646,3.646,0,0,1-309-4.964a15.461,15.461,0,0,1,13.594-8.777A15.474,15.474,0,0,1-281.769-4.882Z" transform="translate(321.5 21.5)" fill="#fcd850" stroke="rgba(0,0,0,0)" stroke-miterlimit="10" stroke-width="1"/>
</svg>
