<svg xmlns="http://www.w3.org/2000/svg" width="99" height="58" viewBox="0 0 99 58">
  <g id="Group_101" data-name="Group 101" transform="translate(-144 -24)">
    <g id="Group_7" data-name="Group 7" transform="translate(11 -3)">
      <g id="Group_1" data-name="Group 1" transform="translate(133 75.644)">
        <path id="Path_1" data-name="Path 1" d="M437.5,333.42a3.957,3.957,0,0,1,2.365.554,2.357,2.357,0,0,1,.958,2.006,2.828,2.828,0,0,1-2.755,2.859,4.212,4.212,0,0,1-.584.03l-.958-.254v1.976c0,1.153.12,1.228,1.332,1.317v.494h-4.027v-.494c1.048-.09,1.183-.195,1.183-1.317v-5.329c0-1.183-.135-1.257-1.093-1.332v-.509Zm-.973,4.641a2.451,2.451,0,0,0,.868.15c.659,0,1.737-.419,1.737-2.171a1.812,1.812,0,0,0-1.856-2.066.892.892,0,0,0-.6.135.664.664,0,0,0-.15.524Z" transform="translate(-433.829 -333.24)"/>
        <path id="Path_2" data-name="Path 2" d="M508.3,342.522c-.135,0-.3-.015-.464-.015a2.624,2.624,0,0,1-2.53-1.3c-.389-.6-.823-1.422-1.213-2.111a.966.966,0,0,0-1-.554h-.359v2.036c0,1.138.12,1.227,1.168,1.317v.509H500v-.509c1.063-.09,1.213-.18,1.213-1.317v-5.359c0-1.123-.135-1.213-1.153-1.287v-.509h3.668a3.981,3.981,0,0,1,2.305.479,2.1,2.1,0,0,1,.928,1.841,2.44,2.44,0,0,1-1.707,2.32c.225.4.749,1.332,1.153,1.961a9.1,9.1,0,0,0,1.048,1.422,2.083,2.083,0,0,0,.913.614Zm-5.045-4.551a1.984,1.984,0,0,0,1.347-.374,1.916,1.916,0,0,0,.7-1.647,1.754,1.754,0,0,0-1.8-1.976.938.938,0,0,0-.644.15c-.1.075-.135.239-.135.554v3.294Z" transform="translate(-492.054 -333.24)"/>
        <path id="Path_3" data-name="Path 3" d="M579.948,340.142c-.075.539-.359,1.856-.479,2.261h-6.811v-.509c1.168-.1,1.3-.18,1.3-1.317v-5.329c0-1.168-.135-1.242-1.138-1.317v-.509h6.317l.135,2.051-.539.06a3.1,3.1,0,0,0-.479-1.153c-.195-.254-.554-.374-1.392-.374h-.838c-.479,0-.524.03-.524.479v2.949h1.063c1.153,0,1.287-.09,1.467-1.033h.524v2.769h-.524c-.18-1-.314-1.063-1.467-1.063H575.5v2.44c0,.644.09.958.344,1.093a3.173,3.173,0,0,0,1.3.165c.808,0,1.258-.09,1.557-.434a4.2,4.2,0,0,0,.718-1.317Z" transform="translate(-556.19 -333.24)"/>
        <path id="Path_4" data-name="Path 4" d="M645.395,342.4v-.509c1.078-.12,1.123-.18,1.108-1.5l-.03-5.464h-.045l-3.1,7.365h-.389l-2.814-7.2h-.06l-.165,3.772a19,19,0,0,0-.03,2.2c.045.614.344.734,1.243.824v.509h-3.278v-.509c.763-.09,1.018-.255,1.108-.793a22.568,22.568,0,0,0,.269-2.485l.21-2.889c.12-1.587.03-1.692-1.168-1.8v-.509h2.65l2.74,6.332,2.814-6.332h2.635v.509c-1.138.1-1.183.15-1.153,1.377l.12,5.09c.03,1.317.075,1.377,1.183,1.5v.509Z" transform="translate(-613.65 -333.24)"/>
        <path id="Path_5" data-name="Path 5" d="M740.771,342.4v-.509c1.048-.09,1.183-.18,1.183-1.317v-5.329c0-1.153-.135-1.242-1.183-1.317v-.509h3.892v.509c-1.048.075-1.168.165-1.168,1.317v5.329c0,1.153.12,1.227,1.168,1.317v.509Z" transform="translate(-704.346 -333.24)"/>
        <path id="Path_6" data-name="Path 6" d="M790.77,333.929c-.778.045-1.093.239-1.168.763a14.465,14.465,0,0,0-.09,2.066v1.332a4.917,4.917,0,0,1-1.018,3.533,3.305,3.305,0,0,1-2.47.973,3.68,3.68,0,0,1-2.306-.674,3.871,3.871,0,0,1-1.153-3.249v-3.383c0-1.2-.12-1.287-1.167-1.362v-.509h3.877v.509c-1.033.075-1.153.165-1.153,1.362v3.114c0,2.156.793,3.278,2.305,3.278,1.677,0,2.38-1.317,2.38-3.623v-1.3a13.575,13.575,0,0,0-.12-2.081c-.075-.494-.389-.688-1.347-.748v-.509h3.428Z" transform="translate(-740.183 -333.24)"/>
        <path id="Path_7" data-name="Path 7" d="M869.838,342.4v-.509c1.078-.12,1.123-.18,1.108-1.5l-.03-5.464h-.045l-3.1,7.365h-.389l-2.814-7.2h-.06l-.165,3.772a19.054,19.054,0,0,0-.03,2.2c.045.614.344.734,1.243.824v.509h-3.279v-.509c.764-.09,1.018-.255,1.108-.793a22.633,22.633,0,0,0,.269-2.485l.209-2.889c.12-1.587.03-1.692-1.167-1.8v-.509h2.649l2.74,6.332,2.814-6.332h2.635v.509c-1.138.1-1.183.15-1.153,1.377l.12,5.09c.03,1.317.075,1.377,1.183,1.5v.509Z" transform="translate(-811.486 -333.24)"/>
        <path id="Path_8" data-name="Path 8" d="M999.824,338.766a18.919,18.919,0,0,1-.763,2.156,13.244,13.244,0,0,1-2.5.344c-3.458,0-4.925-2.335-4.925-4.536,0-2.889,2.156-4.805,5.269-4.805a9.969,9.969,0,0,1,2.4.359c.12.763.21,1.362.285,2.2l-.524.1a2.349,2.349,0,0,0-2.485-2.051c-2.006,0-3.144,1.841-3.144,3.907,0,2.515,1.392,4.192,3.249,4.192,1.2,0,1.931-.689,2.62-2.081Z" transform="translate(-925.478 -331.925)"/>
        <path id="Path_9" data-name="Path 9" d="M1069.632,341.087v-.509c.808-.12.9-.239.719-.808-.164-.434-.374-1.063-.6-1.676h-2.725c-.164.434-.344.928-.494,1.482-.224.733-.165.883.823,1v.509h-3.069v-.509c.9-.12,1.078-.21,1.527-1.392l2.755-7.111.644-.15c.838,2.335,1.721,4.91,2.59,7.231.419,1.183.6,1.317,1.5,1.422v.509Zm-1.2-6.931h-.045l-1.138,3.2h2.26Z" transform="translate(-989.522 -331.925)"/>
        <path id="Path_10" data-name="Path 10" d="M1154.084,342.522c-.135,0-.3-.015-.464-.015a2.624,2.624,0,0,1-2.53-1.3c-.389-.6-.823-1.422-1.213-2.111a.966.966,0,0,0-1-.554h-.359v2.036c0,1.138.12,1.227,1.168,1.317v.509h-3.892v-.509c1.063-.09,1.213-.18,1.213-1.317v-5.359c0-1.123-.135-1.213-1.153-1.287v-.509h3.668a3.982,3.982,0,0,1,2.305.479,2.1,2.1,0,0,1,.928,1.841,2.44,2.44,0,0,1-1.707,2.32c.225.4.749,1.332,1.153,1.961a9.141,9.141,0,0,0,1.048,1.422,2.084,2.084,0,0,0,.913.614Zm-5.045-4.551a1.983,1.983,0,0,0,1.347-.374,1.916,1.916,0,0,0,.7-1.647,1.754,1.754,0,0,0-1.8-1.976.938.938,0,0,0-.644.15c-.1.075-.135.239-.135.554v3.294Z" transform="translate(-1061.432 -333.24)"/>
        <path id="Path_11" data-name="Path 11" d="M1224.651,334.335c-.269-.868-.659-1.826-1.811-1.826a1.332,1.332,0,0,0-1.392,1.377c0,.853.584,1.3,1.722,1.871,1.272.629,2.395,1.347,2.395,2.8,0,1.527-1.287,2.71-3.219,2.71a4.928,4.928,0,0,1-1.347-.195,5.02,5.02,0,0,1-.779-.284,15.218,15.218,0,0,1-.4-2.245l.539-.15c.24.838.913,2.29,2.275,2.29a1.4,1.4,0,0,0,1.467-1.512c0-.883-.674-1.377-1.691-1.916-1.2-.6-2.335-1.317-2.335-2.739,0-1.437,1.122-2.59,3.009-2.59a5.977,5.977,0,0,1,1.826.344c.06.494.15,1.078.269,1.961Z" transform="translate(-1126.564 -331.925)"/>
      </g>
      <g id="Group_3" data-name="Group 3" transform="translate(160 27)">
        <path id="Path_12" data-name="Path 12" d="M177.631,228.287a94.029,94.029,0,0,1-3.387,9.575c-.154.367-.309.735-.471,1.107q-.438,1.022-.921,2.071-.353.766-.731,1.548-.571,1.187-1.2,2.4-.675,1.306-1.421,2.635l-.008.016-.127.224q-.914,1.623-1.854,3.143-.182.3-.365.588c-.035.059-.072.117-.107.174A94.141,94.141,0,0,1,155.568,266.5a.177.177,0,0,1-.257,0,93.748,93.748,0,0,1-22.064-38.217.177.177,0,0,1,.13-.221,98.555,98.555,0,0,1,21.775-2.505h.576a98.555,98.555,0,0,1,21.775,2.505A.177.177,0,0,1,177.631,228.287Z" transform="translate(-133.24 -225.56)"/>
        <g id="Group_2" data-name="Group 2" transform="translate(12.142 6.086)">
          <path id="Path_13" data-name="Path 13" d="M247.965,274.56l-.018-.025-.028-.018a4.189,4.189,0,0,0-.44-.26,4.465,4.465,0,0,0-.758-.31l-.02,0-2.277-.13-1.322-2.387a5.513,5.513,0,0,0-.822-1.126l-.113-.113a5.326,5.326,0,0,0-.708-.594l-.045-.03-.052,0c-.454-.028-.913-.056-1.371-.083l-.007-.375-2.072-.306-4.077-.095-4.078.095-2.072.306-.007.375c-.458.027-.917.055-1.37.083l-.054,0-.044.03a5.326,5.326,0,0,0-.708.594l-.114.113a5.57,5.57,0,0,0-.822,1.126c-.439.8-.882,1.593-1.322,2.387l-2.276.13-.021,0a4.464,4.464,0,0,0-.758.31,4.317,4.317,0,0,0-.439.26l-.028.018-.018.025a2.072,2.072,0,0,0-.3.584,1.938,1.938,0,0,0-.09.56l-.006.145.141.038c.464.131.938.243,1.406.333.372.069.752.127,1.134.171-.058.068-.111.135-.165.2-.128.159-.254.333-.372.511-.127.2-.127.2-.231.346l-.03.04-.035.361L219.876,279a.236.236,0,0,0-.031.027l-.027.028a.775.775,0,0,0-.192.5l0,.38.141,5.036s.014.217.037.542c0,.018,0,.039,0,.061,0,.051.007.1.011.157,0,.024,0,.046.007.068v.034c0,.024,0,.045,0,.071a.55.55,0,0,1,.006.069.326.326,0,0,1,0,.037c0,.035,0,.072.007.109.007.086.014.173.021.264.008.128.018.255.027.382.014.169.028.336.042.494,0,.047.007.09.011.134,0,.021,0,.044.007.068s0,.044,0,.065.006.045.007.066a.112.112,0,0,1,0,.03q0,.049.008.093c0,.01,0,.018,0,.028a.785.785,0,0,0,.01.083c.007.055.008.1.016.151,0,.023,0,.045.007.066a.044.044,0,0,1,0,.018c0,.011.006.025.006.038a.113.113,0,0,0,.006.034.181.181,0,0,0,.006.044c.008.054.018.083.025.086a5.648,5.648,0,0,0,.889,0,17.916,17.916,0,0,1,.3-3.445c.264-.313.5-.392,1.154-.313a18.218,18.218,0,0,1,4.225.671s.261.158.509.339a2.342,2.342,0,0,1,.21.159l.04.032a.613.613,0,0,1,.056.051.421.421,0,0,1,.066.068l-.051-.037-.011-.007a.316.316,0,0,0-.025-.02l-.021-.016c-.007,0-.011-.01-.018-.014a.14.14,0,0,0-.016-.011c-.086-.062-.2-.144-.336-.227-.031-.016-.061-.035-.093-.054l-.01-.007c-.032-.018-.065-.037-.095-.055s-.037-.021-.055-.03l-.109-.056c-.02-.008-.038-.018-.056-.025a.379.379,0,0,0-.054-.027l-.055-.021a.175.175,0,0,0-.054-.021l-.054-.021a.945.945,0,0,0-.192-.047,36.322,36.322,0,0,0-4.41-.375c-.251.142.106,2.6.467,3.35a13.956,13.956,0,0,0,3.147.3s1.34-.544,1.466-.639h.347v0c.054.04.731.433,6.618.449,5.886-.016,6.564-.409,6.618-.449v0h.347a6.043,6.043,0,0,0,.639.295q.937-1.519,1.854-3.143c-.845.093-1.619.189-1.824.214a.969.969,0,0,0-.192.047l-.054.021a.191.191,0,0,0-.054.021l-.055.021a.47.47,0,0,0-.054.027c-.018.007-.037.017-.055.025-.035.017-.075.038-.109.056-.018.008-.038.02-.056.03s-.062.037-.095.055l-.008.007c-.032.018-.064.038-.093.054-.133.083-.25.165-.336.227l-.017.011c-.007,0-.011.01-.018.014l-.021.016-.025.02-.011.007c-.025.018-.041.031-.051.037a.508.508,0,0,1,.068-.068.6.6,0,0,1,.055-.051l.04-.032a2.566,2.566,0,0,1,.21-.159c.248-.181.509-.339.509-.339a9.152,9.152,0,0,1,2.381-.5q.745-1.329,1.421-2.635c-.884.15-1.79.244-2.04.268-.481.045-1.09-.484-1.261-.561a3.177,3.177,0,0,0-.894.007l-.182.071s-.5.858-1.122,1a13.959,13.959,0,0,1-4.489.343s-.577-.025-.577-.855-.124-1.608.935-1.7a29.1,29.1,0,0,1,4.8.079.913.913,0,0,0,.312.188,3.431,3.431,0,0,0,.53.013v0c1.043-.166,4.346-1.051,4.77-1.2a1.148,1.148,0,0,1,.419-.049q.379-.781.731-1.548l-.272-.245-.034-.361-.031-.04c-.1-.148-.1-.148-.231-.346-.117-.178-.243-.351-.373-.511-.054-.065-.107-.133-.165-.2.382-.044.762-.1,1.136-.171.3-.058.594-.123.892-.2.162-.372.317-.741.471-1.107A2.243,2.243,0,0,0,247.965,274.56Zm-25.251.072a1.006,1.006,0,0,1,.584-.32,11.182,11.182,0,0,0-.429,1.124l-.35-.032Zm4.483,7.195-.183-.071a3.177,3.177,0,0,0-.894-.007c-.171.078-.78.607-1.261.561s-3.462-.36-3.913-.827-.188-1.233-.2-1.7a2.875,2.875,0,0,1,1.294-.093c.425.151,3.729,1.035,4.77,1.2v0a3.429,3.429,0,0,0,.53-.013.925.925,0,0,0,.313-.188,29.075,29.075,0,0,1,4.8-.079c1.061.093.935.873.935,1.7s-.576.855-.576.855a13.964,13.964,0,0,1-4.49-.343C227.7,282.685,227.2,281.827,227.2,281.827Zm-.262-3.1a8.117,8.117,0,0,1,.9.605,5.756,5.756,0,0,1-1.048-.288,8.312,8.312,0,0,1-.986-.437,6.977,6.977,0,0,1-.924-.564c-.072-.056-.147-.11-.216-.168s-.138-.12-.209-.181-.13-.131-.192-.2-.113-.145-.166-.221c.326.169.643.312.965.466s.635.307.949.47S226.627,278.545,226.935,278.727Zm-.578-1.886a8.97,8.97,0,0,0,1.009.666c.175.1.346.207.522.306l.261.151.264.148,1.054.6c.35.2.7.4,1.044.621-.384-.134-.756-.295-1.124-.466s-.728-.361-1.083-.56a11.337,11.337,0,0,1-1.033-.653A4.513,4.513,0,0,1,226.357,276.841Zm8.493,8.778c4.548.023,4.138.14,4.421.183s1.188,1.542,1.215,1.589a5.737,5.737,0,0,0-1.806-1.277,30.209,30.209,0,0,0-3.83-.1l-.766.01s-.087,0-.245,0h-.01c-.157,0-.245,0-.245,0l-.766-.01a30.229,30.229,0,0,0-3.83.1,5.754,5.754,0,0,0-1.806,1.277c.028-.047.924-1.542,1.216-1.589s-.127-.161,4.42-.183c.241,0,.5,0,.766,0h.5C234.354,285.616,234.609,285.616,234.849,285.619Zm3.432-6.752c-.368.171-.742.332-1.126.466.343-.217.694-.422,1.044-.621l1.054-.6.264-.148.262-.151c.175-.1.347-.2.521-.306a9.113,9.113,0,0,0,1.01-.666,4.551,4.551,0,0,1-.913.813,11.537,11.537,0,0,1-1.033.653C239.008,278.506,238.65,278.7,238.281,278.867Zm5.128-1.371c-.062.068-.127.134-.192.2s-.137.121-.209.181-.143.111-.214.168a7.163,7.163,0,0,1-.924.564,8.515,8.515,0,0,1-.986.437,5.77,5.77,0,0,1-1.05.288,8.252,8.252,0,0,1,.9-.605c.309-.182.618-.354.931-.518s.629-.317.949-.47.639-.3.965-.466A2.331,2.331,0,0,1,243.409,277.5Zm-19.6-1.935c.059-.539,2.077-4.615,2.077-4.615,2.191-.306,7.777-.353,7.947-.354h0c.169,0,5.757.048,7.947.354,0,0,2.017,4.076,2.078,4.615Zm20.989-.124a11.077,11.077,0,0,0-.427-1.124,1,1,0,0,1,.583.32l.195.772Z" transform="translate(-219.31 -268.7)" fill="#ebc14b"/>
          <path id="Path_14" data-name="Path 14" d="M245.7,409.294c-.035.059-.072.117-.107.174l-.2-.1h-.271a31.089,31.089,0,0,1-6.657.442,31.09,31.09,0,0,1-6.657-.442h-.271l-1.43.693h-1.476l-.354-.02-3.575-.172,3.575-.014h1.773l1.457-.7.329,0,.008,0a30.732,30.732,0,0,0,6.621.435,30.692,30.692,0,0,0,6.619-.435l.01,0,.329,0Z" transform="translate(-223.94 -389.345)" fill="#ebc14b"/>
        </g>
      </g>
    </g>
  </g>
</svg>
