<svg xmlns="http://www.w3.org/2000/svg" width="131" height="77" viewBox="0 0 131 77">
  <path id="Union_10" data-name="Union 10" d="M-263.85,54.109c-1.029-.832-1.524-2.178-1.524-4.3V45.339c0-1.583-.158-1.7-1.544-1.8v-.673h5.126v.673c-1.366.1-1.525.218-1.525,1.8v4.118c0,2.85,1.049,4.335,3.049,4.335,2.217,0,3.146-1.742,3.146-4.791V47.28a17.969,17.969,0,0,0-.158-2.752c-.1-.653-.515-.91-1.782-.989v-.673h4.533v.673c-1.03.059-1.445.316-1.544,1.009a19.145,19.145,0,0,0-.119,2.732v1.761c0,2.019-.317,3.583-1.345,4.672A4.373,4.373,0,0,1-260.8,55,4.87,4.87,0,0,1-263.85,54.109Zm66.813.613a6.587,6.587,0,0,1-1.03-.376,20.111,20.111,0,0,1-.535-2.969l.713-.2c.317,1.109,1.207,3.029,3.009,3.029a1.845,1.845,0,0,0,1.939-2c0-1.168-.89-1.821-2.237-2.534-1.583-.792-3.088-1.742-3.088-3.623,0-1.9,1.484-3.424,3.979-3.424a7.9,7.9,0,0,1,2.415.455c.079.653.2,1.425.356,2.593l-.693.139c-.356-1.148-.871-2.415-2.395-2.415a1.761,1.761,0,0,0-1.841,1.821c0,1.129.772,1.723,2.277,2.474,1.682.832,3.166,1.782,3.166,3.7,0,2.02-1.7,3.583-4.255,3.583A6.519,6.519,0,0,1-197.037,54.722Zm-37.144-5.74c0-3.82,2.85-6.354,6.968-6.354a13.191,13.191,0,0,1,3.167.475c.158,1.009.277,1.8.376,2.91l-.693.139c-.554-2.039-1.683-2.712-3.286-2.712-2.652,0-4.157,2.435-4.157,5.166,0,3.326,1.84,5.543,4.3,5.543,1.583,0,2.553-.911,3.464-2.752l.692.277a24.852,24.852,0,0,1-1.009,2.851,17.532,17.532,0,0,1-3.306.455C-232.241,54.979-234.181,51.891-234.181,48.982Zm34.174,5.9c-1.86-.079-2.573-.554-3.345-1.722-.515-.792-1.089-1.881-1.6-2.791a1.278,1.278,0,0,0-1.327-.733h-.475v2.692c0,1.5.158,1.623,1.544,1.742v.672h-5.147v-.672c1.406-.12,1.6-.238,1.6-1.742V45.24c0-1.484-.178-1.6-1.525-1.7v-.673h4.85a5.264,5.264,0,0,1,3.048.634,2.781,2.781,0,0,1,1.227,2.434A3.226,3.226,0,0,1-203.412,49c.3.535.99,1.762,1.525,2.593a12.122,12.122,0,0,0,1.385,1.881,2.755,2.755,0,0,0,1.208.811l-.1.614C-199.571,54.9-199.789,54.88-200.007,54.88ZM-206.579,43.8c-.139.1-.178.316-.178.732v4.355h.693a2.618,2.618,0,0,0,1.781-.5,2.533,2.533,0,0,0,.931-2.177,2.319,2.319,0,0,0-2.375-2.613A1.236,1.236,0,0,0-206.579,43.8ZM-300.137,54.88c-1.86-.079-2.573-.554-3.345-1.722-.515-.792-1.088-1.881-1.6-2.791a1.278,1.278,0,0,0-1.327-.733h-.475v2.692c0,1.5.158,1.623,1.544,1.742v.672h-5.147v-.672c1.406-.12,1.6-.238,1.6-1.742V45.24c0-1.484-.178-1.6-1.525-1.7v-.673h4.85a5.264,5.264,0,0,1,3.048.634,2.779,2.779,0,0,1,1.227,2.434A3.226,3.226,0,0,1-303.541,49c.3.535.99,1.762,1.525,2.593a12.063,12.063,0,0,0,1.385,1.881,2.755,2.755,0,0,0,1.208.811l-.1.614C-299.7,54.9-299.919,54.88-300.137,54.88ZM-306.708,43.8c-.139.1-.178.316-.178.732v4.355h.693a2.623,2.623,0,0,0,1.782-.5,2.535,2.535,0,0,0,.93-2.177,2.319,2.319,0,0,0-2.375-2.613A1.236,1.236,0,0,0-306.708,43.8Zm90.884,10.946v-.672c1.068-.158,1.187-.317.95-1.069-.218-.574-.5-1.406-.792-2.217h-3.6a20.509,20.509,0,0,0-.653,1.959c-.3.97-.218,1.168,1.089,1.327v.672h-4.058v-.672c1.187-.158,1.425-.277,2.019-1.841l3.642-9.4.851-.2c1.109,3.088,2.276,6.493,3.424,9.561.554,1.564.792,1.742,1.979,1.881v.672Zm-3.147-4.928h2.989l-1.426-4.236h-.059Zm-25.4,4.928v-.672c1.425-.158,1.484-.238,1.464-1.98l-.04-7.225H-243l-4.1,9.739h-.515l-3.721-9.521h-.079l-.218,4.989a25.087,25.087,0,0,0-.04,2.91c.059.812.455.969,1.643,1.089v.672h-4.335v-.672c1.01-.12,1.346-.337,1.465-1.049a30.2,30.2,0,0,0,.355-3.286l.277-3.82c.158-2.1.04-2.237-1.544-2.375v-.673h3.5l3.623,8.373,3.721-8.373h3.484v.673c-1.5.138-1.563.2-1.524,1.821l.158,6.73c.04,1.742.1,1.822,1.563,1.98v.672Zm-28.814,0v-.672c1.385-.12,1.564-.238,1.564-1.742V45.28c0-1.524-.179-1.642-1.564-1.741v-.673h5.146v.673c-1.385.1-1.544.218-1.544,1.741v7.047c0,1.524.158,1.623,1.544,1.742v.672Zm-6.093,0v-.672c1.425-.158,1.485-.238,1.465-1.98l-.04-7.225h-.059l-4.1,9.739h-.515l-3.721-9.521h-.079l-.218,4.989a25.082,25.082,0,0,0-.04,2.91c.059.812.455.969,1.643,1.089v.672h-4.335v-.672c1.009-.12,1.346-.337,1.465-1.049a30.2,30.2,0,0,0,.355-3.286l.277-3.82c.158-2.1.04-2.237-1.544-2.375v-.673h3.5l3.622,8.373,3.721-8.373h3.484v.673c-1.5.138-1.563.2-1.524,1.821l.158,6.73c.04,1.742.1,1.822,1.564,1.98v.672Zm-20.112,0v-.672c1.543-.139,1.722-.238,1.722-1.742V45.28c0-1.543-.178-1.642-1.5-1.741v-.673h8.353l.178,2.712-.713.079a4.106,4.106,0,0,0-.634-1.525c-.257-.336-.732-.494-1.841-.494h-1.109c-.634,0-.692.039-.692.633v3.9h1.4c1.525,0,1.7-.119,1.94-1.365h.692v3.661h-.692c-.238-1.326-.416-1.4-1.94-1.4h-1.4v3.226c0,.851.118,1.267.454,1.445a4.2,4.2,0,0,0,1.723.217c1.069,0,1.662-.119,2.058-.573a5.564,5.564,0,0,0,.95-1.742l.693.119c-.1.713-.475,2.455-.634,2.989Zm-21.613,0v-.653c1.385-.119,1.563-.258,1.563-1.742V45.3c0-1.563-.178-1.662-1.444-1.761v-.673h4.73a5.234,5.234,0,0,1,3.128.733,3.116,3.116,0,0,1,1.266,2.652,3.74,3.74,0,0,1-3.642,3.781,5.587,5.587,0,0,1-.772.04l-1.266-.337v2.613c0,1.524.158,1.624,1.761,1.742v.653Zm3.761-10.966a.879.879,0,0,0-.2.694V49a3.243,3.243,0,0,0,1.147.2c.871,0,2.3-.554,2.3-2.87a2.4,2.4,0,0,0-2.454-2.731A1.18,1.18,0,0,0-317.239,43.775Zm60.677-10.637a124.3,124.3,0,0,1-18.41-24.944A123.984,123.984,0,0,1-285.737-17.4a.235.235,0,0,1,.022-.184.229.229,0,0,1,.148-.109A130.584,130.584,0,0,1-256.774-21h.761a130.565,130.565,0,0,1,28.792,3.313.231.231,0,0,1,.148.109.231.231,0,0,1,.023.184,124.745,124.745,0,0,1-4.479,12.66,3.1,3.1,0,0,0-.274-.47l-.024-.033-.038-.024a5.689,5.689,0,0,0-.581-.344,6.1,6.1,0,0,0-1-.41l-.026-.005-3.011-.171-.823-1.486-.925-1.67a7.312,7.312,0,0,0-1.087-1.489l-.149-.149a7.025,7.025,0,0,0-.936-.786l-.06-.039-.068-.005c-.6-.038-1.207-.075-1.813-.111l-.009-.5-2.74-.4-5.391-.125-5.393.125-2.74.4-.01.5-1.811.111-.071.005-.058.039a7.065,7.065,0,0,0-.937.786l-.151.149a7.4,7.4,0,0,0-1.087,1.489q-.728,1.32-1.462,2.641l-.286.516-3.009.171-.028.005a6.036,6.036,0,0,0-1,.41,5.75,5.75,0,0,0-.581.344l-.037.024-.024.033a2.756,2.756,0,0,0-.392.772,2.584,2.584,0,0,0-.119.741l-.008.192.187.05c.607.172,1.233.32,1.859.44.5.095,1.008.17,1.5.226l-.136.164-.01.013-.073.088c-.162.2-.328.428-.492.676s-.168.261-.306.457l-.04.052-.046.477-1.7,1.528a.175.175,0,0,0-.028.023l-.014.012-.035.038a.946.946,0,0,0-.12.167.944.944,0,0,0-.134.494l0,.5.186,6.659s.019.288.049.716c0,.012,0,.024,0,.037s0,.029,0,.043c0,.035.005.069.007.1v.007c0,.031,0,.063.006.1,0,.014,0,.028,0,.041a.407.407,0,0,0,.005.049V9.7a.509.509,0,0,1,0,.063l0,.031A.758.758,0,0,1-269,9.89l0,.016a.21.21,0,0,1,0,.032c0,.024,0,.049,0,.074s0,.047,0,.069l.011.14c.006.068.012.138.017.209s.012.168.017.252v.007c.006.083.012.165.017.246.019.224.038.445.057.653,0,.029,0,.056.006.084v.005h0c0,.03,0,.059.007.088l0,.032c0,.019,0,.038.007.057s0,.039,0,.058,0,.02,0,.029c0,.031.007.06.009.087a.154.154,0,0,1,0,.04.915.915,0,0,0,.012.122.124.124,0,0,0,0,.019.132.132,0,0,1,0,.019l0,.027a.651.651,0,0,0,.01.083c0,.037.008.071.011.1s.005.065.01.1c0,.011,0,.021,0,.031s0,.04.006.057a.063.063,0,0,1,.005.024.105.105,0,0,0,0,.023.16.16,0,0,1,0,.027v.013a.083.083,0,0,0,.006.032.189.189,0,0,0,.008.058.252.252,0,0,0,.033.114c.057.011.439.024.767.024a1.482,1.482,0,0,0,.409-.024c0-.008.009-.184.016-.45.029-1.133.1-3.776.375-4.106a1.121,1.121,0,0,1,1-.451,4.51,4.51,0,0,1,.529.037c.173.022.438.043.775.071a18.481,18.481,0,0,1,4.812.817c.037.023.363.222.673.447a3.48,3.48,0,0,1,.278.211l.025.021.027.023a.888.888,0,0,1,.075.068.613.613,0,0,1,.087.089.349.349,0,0,1-.033-.024l-.033-.024-.015-.009-.012-.009a.2.2,0,0,0-.022-.017.06.06,0,0,1-.015-.011L-259,9.59a.052.052,0,0,1-.013-.01.116.116,0,0,0-.011-.009l-.012-.008-.009-.006c-.078-.057-.24-.171-.444-.3a.761.761,0,0,1-.074-.041l-.049-.03a.05.05,0,0,1-.013-.009l-.025-.014c-.035-.02-.068-.039-.1-.059l-.023-.013-.049-.026-.047-.024-.1-.05-.03-.014-.045-.021a.583.583,0,0,0-.071-.035l-.072-.028a.246.246,0,0,0-.071-.028c-.022-.01-.049-.02-.071-.028a1.251,1.251,0,0,0-.254-.062c-.041,0-4.2-.53-5.486-.53a.988.988,0,0,0-.345.034c-.324.184.126,3.413.617,4.43a18.661,18.661,0,0,0,3.842.4l.319,0c.017-.006,1.775-.722,1.939-.845h.458c.075.059.95.577,8.751.6,7.748-.02,8.671-.534,8.751-.593l0,0h.454a8.186,8.186,0,0,0,.845.39l-.131.214c-.121.194-.235.377-.352.563-.039.065-.078.128-.117.19l-.025.04a124.675,124.675,0,0,1-15.165,19.484.234.234,0,0,1-.17.073A.234.234,0,0,1-256.562,33.138Zm-2.723-21.378.02-.032c.368-.6,1.26-2.016,1.589-2.068a.764.764,0,0,0,.131-.032c.225-.069.6-.185,5.713-.211l.673,0h.03l.31,0h.662l.31,0h.027l.676,0c5.111.026,5.488.142,5.713.211a.775.775,0,0,0,.132.032c.387.062,1.553,2.011,1.6,2.094a7.722,7.722,0,0,0-2.384-1.682,21.51,21.51,0,0,0-3.527-.147c-.623,0-1.18,0-1.537.008l-1.013.014s-.115,0-.325,0h-.013c-.207,0-.325,0-.325,0l-1.013-.014c-.546-.005-1.064-.008-1.536-.008a21.566,21.566,0,0,0-3.528.147,7.727,7.727,0,0,0-2.388,1.688Zm17.172-2.07a.648.648,0,0,1,.086-.085l.009-.009c.022-.022.042-.041.063-.059l.052-.043c.072-.06.163-.13.278-.211.328-.238.67-.445.673-.447a11.558,11.558,0,0,1,3.148-.661l-.005.012,0,.007-.168.3c-1.055.117-2.038.238-2.36.277l-.052.006a1.324,1.324,0,0,0-.254.062l-.07.028a.26.26,0,0,0-.071.028l-.073.028c-.025.012-.048.022-.071.035l-.054.025-.019.009c-.04.019-.085.043-.124.065l-.019.01c-.016.007-.033.017-.05.026l-.024.013c-.04.024-.082.049-.125.073a.024.024,0,0,1-.007.006l-.058.035c-.023.014-.046.027-.068.039-.184.116-.343.228-.444.3l-.023.014-.014.011a.049.049,0,0,1-.011.008.1.1,0,0,0-.015.012A.055.055,0,0,1-242,9.61l-.019.014-.015.012-.014.009-.036.027a.321.321,0,0,1-.027.019Zm-7.017-3.514c-.007,0-.763-.046-.763-1.13,0-.1,0-.209,0-.312-.014-.98-.027-1.826,1.239-1.937.546-.048,1.571-.077,2.74-.077a21.759,21.759,0,0,1,3.609.181,1.183,1.183,0,0,0,.412.247,2.1,2.1,0,0,0,.391.024c.159,0,.3-.006.311-.007,1.338-.21,5.716-1.374,6.307-1.586a1.376,1.376,0,0,1,.46-.067l.093,0c-.509,1.061-1.044,2.129-1.589,3.174-1.28.217-2.556.341-2.7.355a.737.737,0,0,1-.078,0,2.794,2.794,0,0,1-1.334-.586,2.418,2.418,0,0,0-.256-.16,1.063,1.063,0,0,0-.367-.041c-.3,0-.688.039-.815.05l-.24.094c-.028.047-.686,1.14-1.483,1.319a19.755,19.755,0,0,1-4.383.536A14.689,14.689,0,0,1-249.131,6.176Zm-8.65-.454c-.81-.181-1.474-1.307-1.48-1.319l-.243-.094c-.226-.023-.551-.05-.814-.05a1.069,1.069,0,0,0-.368.041,2.338,2.338,0,0,0-.255.16,2.8,2.8,0,0,1-1.335.586.737.737,0,0,1-.078,0c-.185-.017-4.544-.441-5.174-1.093a2,2,0,0,1-.306-1.686A4.332,4.332,0,0,0-267.8,1.7l.009,0a5.263,5.263,0,0,1,1.219-.187,1.486,1.486,0,0,1,.483.067c.589.21,4.963,1.374,6.306,1.589h.021l.079,0c.057,0,.132,0,.212,0a2.085,2.085,0,0,0,.39-.024,1.217,1.217,0,0,0,.414-.247,21.72,21.72,0,0,1,3.606-.181c1.169,0,2.192.029,2.74.077,1.267.111,1.255.955,1.239,1.933v.009c0,.1,0,.2,0,.307,0,1.085-.754,1.13-.761,1.13a14.469,14.469,0,0,1-1.553.082A19.757,19.757,0,0,1-257.781,5.722Zm15.229-4.616,0,0a10.841,10.841,0,0,1,1.182-.8c.418-.246.82-.47,1.231-.685.38-.2.778-.393,1.255-.621l.363-.171c.3-.14.6-.284.913-.445l-.01.017a3.185,3.185,0,0,1-.211.275c-.073.08-.153.164-.254.263l-.056.049c-.072.064-.145.129-.22.19-.056.047-.114.092-.172.135l-.112.086a9.4,9.4,0,0,1-1.222.746,11.076,11.076,0,0,1-1.3.579,7.631,7.631,0,0,1-1.384.381Zm-15.876,0A7.736,7.736,0,0,1-259.81.725a10.947,10.947,0,0,1-1.3-.579A9.041,9.041,0,0,1-262.336-.6l-.106-.081c-.059-.045-.121-.092-.179-.14s-.112-.1-.166-.142l-.111-.1c-.079-.078-.17-.17-.254-.263a3.3,3.3,0,0,1-.22-.293c.3.158.607.3.9.438L-262.1-1c.459.219.87.422,1.255.621.42.22.834.45,1.231.685a10.869,10.869,0,0,1,1.182.8l0,0Zm12.341,0c.48-.3.963-.583,1.373-.816l1.393-.793.349-.2.346-.2c.176-.1.353-.2.524-.306l.165-.1a11.911,11.911,0,0,0,1.336-.881,6,6,0,0,1-1.207,1.075,14.926,14.926,0,0,1-1.365.864c-.538.3-.994.536-1.433.741-.566.263-1.036.457-1.48.613ZM-256.369.491c-.44-.205-.908-.447-1.433-.741a14.579,14.579,0,0,1-1.365-.864,5.951,5.951,0,0,1-1.207-1.075,11.868,11.868,0,0,0,1.334.881l.209.124c.157.093.319.189.481.28l.346.2.348.2,1.393.793c.41.234.895.513,1.373.816v0C-255.329.95-255.8.755-256.369.491Zm23-1.023-.359-.324-.045-.477-.041-.052c-.136-.2-.136-.2-.305-.457s-.33-.475-.493-.676l-.064-.078q-.074-.092-.154-.186c.483-.055.988-.131,1.5-.226.424-.082.81-.167,1.179-.261-.391.911-.8,1.832-1.217,2.738h0Zm-3.862-3.35h-26.513c.077-.7,2.719-6.047,2.746-6.1,2.878-.4,10.2-.465,10.507-.468h.005c.311,0,7.632.066,10.508.468l.013.025a63.445,63.445,0,0,1,2.735,6.075h0Zm1.24-.164a14.539,14.539,0,0,0-.565-1.487h.007a1.345,1.345,0,0,1,.763.424l.257,1.02-.462.043Zm-28.994,0-.462-.043.257-1.02a1.346,1.346,0,0,1,.772-.424,14.8,14.8,0,0,0-.567,1.487Z" transform="translate(321.5 21.5)" stroke="rgba(0,0,0,0)" stroke-miterlimit="10" stroke-width="1"/>
</svg>
