<svg xmlns="http://www.w3.org/2000/svg" width="15" height="15" viewBox="0 0 15 15">
  <g id="Group_17" data-name="Group 17" transform="translate(-754 -360)" opacity="0.4">
    <path id="Path_22" data-name="Path 22" d="M768.923,366.192a2.552,2.552,0,0,0-.623-1.464l-1.83-2.063a.393.393,0,0,0-.575-.021.445.445,0,0,0-.02.606l.912,1.028,0,1.722,1.392,1.374c.065,1.95-.072,4.436-.514,5.167-.034.057-.155.239-.27.206-.207-.061-.757-.723-.811-3.029a4.011,4.011,0,0,0-1.054-2.9,2.794,2.794,0,0,0-1.592-.751V360h-8.957v13.371h-.464a.527.527,0,0,0-.513.54V375h10.911v-1.088a.527.527,0,0,0-.513-.54h-.464v-6.443a1.989,1.989,0,0,1,1.043.518,3.187,3.187,0,0,1,.789,2.293c.052,2.19.565,3.588,1.407,3.834a.9.9,0,0,0,.253.037,1.107,1.107,0,0,0,.922-.608C769.127,371.714,769.042,367.56,768.923,366.192ZM757.5,372.257h-1.384v-4.029H757.5Zm5.293-5.143h-6.677v-5.829h6.677Z" transform="translate(0 0)"/>
  </g>
</svg>
